<?xml version="1.0" standalone="no"?><!DOCTYPE svg PUBLIC "-//W3C//DTD SVG 1.1//EN" "http://www.w3.org/Graphics/SVG/1.1/DTD/svg11.dtd"><svg height="32" node-id="1" sillyvg="true" template-height="32" template-width="32" version="1.1" viewBox="0 0 32 32" width="32" xmlns="http://www.w3.org/2000/svg" xmlns:xlink="http://www.w3.org/1999/xlink"><defs node-id="75"><linearGradient gradientUnits="objectBoundingBox" id="paint4_linear_7000_5051" node-id="49" spreadMethod="pad" x1="17.4765" x2="24.0185" y1="11.3645" y2="19.1501"><stop offset="0.694491" stop-color="#ff7af2" stop-opacity="0"></stop><stop offset="0.933555" stop-color="#ffbce6"></stop></linearGradient><linearGradient gradientUnits="objectBoundingBox" id="paint5_linear_7000_5051" node-id="52" spreadMethod="pad" x1="16.6655" x2="8.98798" y1="11.6889" y2="20.3396"><stop offset="0.694491" stop-color="#ff7af2" stop-opacity="0"></stop><stop offset="0.933555" stop-color="#ffbce6"></stop></linearGradient><radialGradient cx="0" cy="0" fx="0" fy="0" gradientUnits="objectBoundingBox" id="paint0_radial_7000_5051" node-id="36" r="1" rev="10" spreadMethod="pad"><stop offset="0" stop-color="#f12e52"></stop><stop offset="0.596003" stop-color="#ff3b79"></stop><stop offset="1" stop-color="#ff4ec6"></stop></radialGradient><radialGradient cx="0" cy="0" fx="0" fy="0" gradientUnits="objectBoundingBox" id="paint1_radial_7000_5051" node-id="40" r="1" rev="9" spreadMethod="pad"><stop offset="0.483055" stop-color="#b91d43" stop-opacity="0"></stop><stop offset="0.833898" stop-color="#b91d43"></stop></radialGradient><radialGradient cx="0" cy="0" fx="0" fy="0" gradientUnits="objectBoundingBox" id="paint2_radial_7000_5051" node-id="43" r="1" rev="8" spreadMethod="pad"><stop offset="0.40984" stop-color="#b91d43" stop-opacity="0"></stop><stop offset="0.833898" stop-color="#b91d43"></stop></radialGradient><radialGradient cx="0" cy="0" fx="0" fy="0" gradientUnits="objectBoundingBox" id="paint3_radial_7000_5051" node-id="46" r="1" rev="7" spreadMethod="pad"><stop offset="0.671096" stop-color="#ff7af2" stop-opacity="0"></stop><stop offset="0.933555" stop-color="#ffbce6"></stop></radialGradient><radialGradient cx="0" cy="0" fx="0" fy="0" gradientUnits="objectBoundingBox" id="paint6_radial_7000_5051" node-id="55" r="1" rev="6" spreadMethod="pad"><stop offset="0" stop-color="#ff93ba"></stop><stop offset="1" stop-color="#ff73a6" stop-opacity="0"></stop></radialGradient><radialGradient cx="0" cy="0" fx="0" fy="0" gradientUnits="objectBoundingBox" id="paint7_radial_7000_5051" node-id="58" r="1" rev="5" spreadMethod="pad"><stop offset="0" stop-color="#f12e52"></stop><stop offset="0.596003" stop-color="#ff3b79"></stop><stop offset="1" stop-color="#ff4ec6"></stop></radialGradient><radialGradient cx="0" cy="0" fx="0" fy="0" gradientUnits="objectBoundingBox" id="paint8_radial_7000_5051" node-id="62" r="1" rev="4" spreadMethod="pad"><stop offset="0.671096" stop-color="#ff7af2" stop-opacity="0"></stop><stop offset="0.933555" stop-color="#ffbce6"></stop></radialGradient><radialGradient cx="0" cy="0" fx="0" fy="0" gradientUnits="objectBoundingBox" id="paint9_radial_7000_5051" node-id="65" r="1" rev="3" spreadMethod="pad"><stop offset="0.40984" stop-color="#b91d43" stop-opacity="0"></stop><stop offset="0.833898" stop-color="#b91d43"></stop></radialGradient><radialGradient cx="0" cy="0" fx="0" fy="0" gradientUnits="objectBoundingBox" id="paint10_radial_7000_5051" node-id="68" r="0.99999994" rev="2" spreadMethod="pad"><stop offset="0" stop-color="#ffa3bd"></stop><stop offset="1" stop-color="#ff80a3" stop-opacity="0"></stop></radialGradient><radialGradient cx="0" cy="0" fx="0" fy="0" gradientUnits="objectBoundingBox" id="paint11_radial_7000_5051" node-id="71" r="1" rev="1" spreadMethod="pad"><stop offset="0" stop-color="#ff93ba"></stop><stop offset="1" stop-color="#ff73a6" stop-opacity="0"></stop></radialGradient><filter filterUnits="objectBoundingBox" height="15.2228" id="filter0_f_7000_5051" node-id="20" width="7.68867" x="14.623" y="4.19641"><feFlood color-interpolation-filters="sRGB" flood-color="#000000" flood-opacity="0" result="BackgroundImageFix"></feFlood><feBlend color-interpolation-filters="sRGB" in="SourceGraphic" in2="BackgroundImageFix" mode="normal" result="shape"></feBlend><feGaussianBlur color-interpolation-filters="sRGB" in="shape" result="effect1_foregroundBlur_7000_5051" stdDeviation="1 1"></feGaussianBlur></filter><filter filterUnits="objectBoundingBox" height="8.80505" id="filter1_f_7000_5051" node-id="24" width="8.864189" x="18.8457" y="2.94238"><feFlood color-interpolation-filters="sRGB" flood-color="#000000" flood-opacity="0" result="BackgroundImageFix"></feFlood><feBlend color-interpolation-filters="sRGB" in="SourceGraphic" in2="BackgroundImageFix" mode="normal" result="shape"></feBlend><feGaussianBlur color-interpolation-filters="sRGB" in="shape" result="effect1_foregroundBlur_7000_5051" stdDeviation="0.75 0.75"></feGaussianBlur></filter><filter filterUnits="objectBoundingBox" height="4.560299" id="filter2_f_7000_5051" node-id="28" width="4.70152" x="14.7217" y="24.1544"><feFlood color-interpolation-filters="sRGB" flood-color="#000000" flood-opacity="0" result="BackgroundImageFix"></feFlood><feBlend color-interpolation-filters="sRGB" in="SourceGraphic" in2="BackgroundImageFix" mode="normal" result="shape"></feBlend><feGaussianBlur color-interpolation-filters="sRGB" in="shape" result="effect1_foregroundBlur_7000_5051" stdDeviation="0.5 0.5"></feGaussianBlur></filter><filter filterUnits="objectBoundingBox" height="9.62695" id="filter3_f_7000_5051" node-id="32" width="8.90321" x="9.61088" y="2.53149"><feFlood color-interpolation-filters="sRGB" flood-color="#000000" flood-opacity="0" result="BackgroundImageFix"></feFlood><feBlend color-interpolation-filters="sRGB" in="SourceGraphic" in2="BackgroundImageFix" mode="normal" result="shape"></feBlend><feGaussianBlur color-interpolation-filters="sRGB" in="shape" result="effect1_foregroundBlur_7000_5051" stdDeviation="0.75 0.75"></feGaussianBlur></filter></defs><path d="M 15.30 21.90 L 16.10 22.20 L 17.00 21.90 L 20.40 19.60 L 24.00 16.00 L 25.60 13.90 L 26.80 11.50 L 27.50 8.30 L 27.40 7.00 L 26.60 5.10 L 25.30 3.70 L 23.70 2.70 L 21.90 2.30 L 20.60 2.40 L 19.40 2.80 L 16.20 4.90 L 12.20 2.50 L 10.40 2.40 L 8.60 2.70 L 7.00 3.60 L 5.40 5.60 L 4.80 8.20 L 4.90 9.90 L 6.40 13.60 L 9.60 17.50 L 15.30 21.90 Z" fill="url(#paint0_radial_7000_5051)" fill-rule="nonzero" node-id="186" stroke="none" target-height="19.900002" target-width="22.7" target-x="4.8" target-y="2.3"></path><path d="M 15.30 21.90 L 16.10 22.20 L 17.00 21.90 L 20.40 19.60 L 24.00 16.00 L 25.60 13.90 L 26.80 11.50 L 27.50 8.30 L 27.40 7.00 L 26.60 5.10 L 25.30 3.70 L 23.70 2.70 L 21.90 2.30 L 20.60 2.40 L 19.40 2.80 L 16.20 4.90 L 12.20 2.50 L 10.40 2.40 L 8.60 2.70 L 7.00 3.60 L 5.40 5.60 L 4.80 8.20 L 4.90 9.90 L 6.40 13.60 L 9.60 17.50 L 15.30 21.90 Z" fill="url(#paint1_radial_7000_5051)" fill-rule="nonzero" node-id="188" stroke="none" target-height="19.900002" target-width="22.7" target-x="4.8" target-y="2.3"></path><path d="M 15.30 21.90 L 16.10 22.20 L 17.00 21.90 L 20.40 19.60 L 24.00 16.00 L 25.60 13.90 L 26.80 11.50 L 27.50 8.30 L 27.40 7.00 L 26.60 5.10 L 25.30 3.70 L 23.70 2.70 L 21.90 2.30 L 20.60 2.40 L 19.40 2.80 L 16.20 4.90 L 12.20 2.50 L 10.40 2.40 L 8.60 2.70 L 7.00 3.60 L 5.40 5.60 L 4.80 8.20 L 4.90 9.90 L 6.40 13.60 L 9.60 17.50 L 15.30 21.90 Z" fill="url(#paint2_radial_7000_5051)" fill-rule="nonzero" node-id="190" stroke="none" target-height="19.900002" target-width="22.7" target-x="4.8" target-y="2.3"></path><path d="M 15.30 21.90 L 16.10 22.20 L 17.00 21.90 L 20.40 19.60 L 24.00 16.00 L 25.60 13.90 L 26.80 11.50 L 27.50 8.30 L 27.40 7.00 L 26.60 5.10 L 25.30 3.70 L 23.70 2.70 L 21.90 2.30 L 20.60 2.40 L 19.40 2.80 L 16.20 4.90 L 12.20 2.50 L 10.40 2.40 L 8.60 2.70 L 7.00 3.60 L 5.40 5.60 L 4.80 8.20 L 4.90 9.90 L 6.40 13.60 L 9.60 17.50 L 15.30 21.90 Z" fill="url(#paint3_radial_7000_5051)" fill-rule="nonzero" node-id="192" stroke="none" target-height="19.900002" target-width="22.7" target-x="4.8" target-y="2.3"></path><path d="M 15.30 21.90 L 16.10 22.20 L 17.00 21.90 L 20.40 19.60 L 24.00 16.00 L 25.60 13.90 L 26.80 11.50 L 27.50 8.30 L 27.40 7.00 L 26.60 5.10 L 25.30 3.70 L 23.70 2.70 L 21.90 2.30 L 20.60 2.40 L 19.40 2.80 L 16.20 4.90 L 12.20 2.50 L 10.40 2.40 L 8.60 2.70 L 7.00 3.60 L 5.40 5.60 L 4.80 8.20 L 4.90 9.90 L 6.40 13.60 L 9.60 17.50 L 15.30 21.90 Z" fill="url(#paint4_linear_7000_5051)" fill-rule="nonzero" node-id="194" stroke="none" target-height="19.900002" target-width="22.7" target-x="4.8" target-y="2.3"></path><path d="M 15.30 21.90 L 16.10 22.20 L 17.00 21.90 L 20.40 19.60 L 24.00 16.00 L 25.60 13.90 L 26.80 11.50 L 27.50 8.30 L 27.40 7.00 L 26.60 5.10 L 25.30 3.70 L 23.70 2.70 L 21.90 2.30 L 20.60 2.40 L 19.40 2.80 L 16.20 4.90 L 12.20 2.50 L 10.40 2.40 L 8.60 2.70 L 7.00 3.60 L 5.40 5.60 L 4.80 8.20 L 4.90 9.90 L 6.40 13.60 L 9.60 17.50 L 15.30 21.90 Z" fill="url(#paint5_linear_7000_5051)" fill-rule="nonzero" node-id="196" stroke="none" target-height="19.900002" target-width="22.7" target-x="4.8" target-y="2.3"></path><g node-id="231"><path d="M 16.60 6.90 L 16.80 17.10 L 17.70 17.40 L 18.10 17.00 L 20.00 12.80 L 20.30 10.50 L 20.00 8.30 L 19.50 7.30 L 17.90 6.30 L 17.20 6.20 L 16.60 6.90 Z" fill="#fa1c56" fill-rule="nonzero" filter="url(#filter0_f_7000_5051)" group-id="1" node-id="200" stroke="none" target-height="11.2" target-width="3.6999989" target-x="16.6" target-y="6.2"></path></g><g node-id="232"><g node-id="235"><path d="M 25.70 5.00 L 26.20 5.80 L 26.20 6.90 L 24.90 9.00 L 22.70 10.20 L 21.60 10.20 L 20.80 9.70 L 20.40 8.90 L 20.40 7.80 L 21.60 5.70 L 23.80 4.50 L 24.90 4.50 L 25.70 5.00 Z" fill="url(#paint6_radial_7000_5051)" fill-rule="nonzero" filter="url(#filter1_f_7000_5051)" group-id="2,5" node-id="207" stroke="none" target-height="5.7" target-width="5.800001" target-x="20.4" target-y="4.5"></path></g></g><path d="M 19.20 27.00 L 19.00 28.20 L 18.30 29.20 L 17.30 29.90 L 16.00 30.20 L 14.70 29.90 L 13.70 29.20 L 13.00 28.20 L 12.80 27.00 L 13.00 25.70 L 13.70 24.70 L 14.70 24.00 L 16.00 23.80 L 17.30 24.00 L 18.30 24.70 L 19.00 25.70 L 19.20 27.00 Z" fill="url(#paint7_radial_7000_5051)" fill-rule="nonzero" node-id="211" stroke="none" target-height="6.4000015" target-width="6.4000006" target-x="12.8" target-y="23.8"></path><path d="M 19.20 27.00 L 19.00 28.20 L 18.30 29.20 L 17.30 29.90 L 16.00 30.20 L 14.70 29.90 L 13.70 29.20 L 13.00 28.20 L 12.80 27.00 L 13.00 25.70 L 13.70 24.70 L 14.70 24.00 L 16.00 23.80 L 17.30 24.00 L 18.30 24.70 L 19.00 25.70 L 19.20 27.00 Z" fill="url(#paint8_radial_7000_5051)" fill-rule="nonzero" node-id="213" stroke="none" target-height="6.4000015" target-width="6.4000006" target-x="12.8" target-y="23.8"></path><path d="M 19.20 27.00 L 19.00 28.20 L 18.30 29.20 L 17.30 29.90 L 16.00 30.20 L 14.70 29.90 L 13.70 29.20 L 13.00 28.20 L 12.80 27.00 L 13.00 25.70 L 13.70 24.70 L 14.70 24.00 L 16.00 23.80 L 17.30 24.00 L 18.30 24.70 L 19.00 25.70 L 19.20 27.00 Z" fill="url(#paint9_radial_7000_5051)" fill-rule="nonzero" node-id="215" stroke="none" target-height="6.4000015" target-width="6.4000006" target-x="12.8" target-y="23.8"></path><g node-id="233"><g node-id="236"><path d="M 18.30 25.90 L 18.30 26.90 L 17.50 27.60 L 16.10 27.30 L 15.70 26.40 L 15.80 26.00 L 16.60 25.30 L 17.60 25.20 L 18.30 25.90 Z" fill="url(#paint10_radial_7000_5051)" fill-rule="nonzero" filter="url(#filter2_f_7000_5051)" group-id="3,6" node-id="221" stroke="none" target-height="2.3999996" target-width="2.5999994" target-x="15.7" target-y="25.2"></path></g></g><path d="M 11.60 4.30 L 12.40 4.00 L 13.50 4.30 L 15.70 6.00 L 17.00 8.60 L 17.00 9.70 L 16.50 10.40 L 15.70 10.70 L 14.60 10.40 L 12.40 8.70 L 11.20 6.10 L 11.20 5.00 L 11.60 4.30 Z" fill="url(#paint11_radial_7000_5051)" fill-opacity="0.6" fill-rule="nonzero" filter="url(#filter3_f_7000_5051)" group-id="4,7" node-id="229" stroke="none" target-height="6.7" target-width="5.8" target-x="11.2" target-y="4"></path></svg>